<svg xmlns="http://www.w3.org/2000/svg" width="64" height="64">
  <g transform="translate(-501.3 -494)">
    <circle r="32" cy="526" cx="533.3" fill="#04a"/>
    <path d="M524 511.8c-.4 2.2.2 4.9 1.1 8 .1.2 0 .5-.1.5-.4.1-1.2 0-1.3-.3-.7-1.5-1-3-2-4.4-.5-1-1.1-2-1.8-2.7-.9-.8-1.6-1-2.5-.5a3.9 3.9 0 00-2.2 2.7c-.2 1-.1 2.3 0 3.4l1 3.5c-.3.8-2 5.4-2.4 8.7-.6 4-2 16.6 11.7 15.2 5-.5 9.2-2.3 13-4.1l6.3-3.1c2.2-1.2 4.2-2.5 5.7-3.8 1.5-1.4 2.6-2.9 2.4-4.3-.3-2.4-1.9-4.2-4-5.5a35.9 35.9 0 00-8.3-3.4 38 38 0 00-9.2-1.6c-.2-3.2.2-7.5-1.8-10-.5-.6-1.2-1-2-1-1.3 0-3.2.5-3.6 2.7z" fill="#fff"/>
    <path d="M540.2 517.6c0 .8 0 2.5 1.1 2.6 1.3.2 1.7-.9 1.8-1.7.5-2.5.6-3.3.8-5.6.2-2.7 1-7.3-.3-7-1.1.5-2 4.2-2.4 5.7-.2 1.2-1 4.6-1 6zM545.6 518.1c-.7 1.6-1 3 0 3.5s2-.6 2.4-1.3l2.2-5.3c1-2.6 3.8-7.4 2-7.1-1.3.1-3 3.3-3.7 4.7-1 1.7-1.9 3.2-2.9 5.5z" fill="#fff"/>
  </g>
</svg>
